<svg width="1280" height="640" viewBox="0 0 1280 640" fill="none" xmlns="http://www.w3.org/2000/svg">
<rect width="1280" height="640" fill="#222222"/>
<g clip-path="url(#clip0_20_332)">
<mask id="mask0_20_332" style="mask-type:alpha" maskUnits="userSpaceOnUse" x="312" y="187" width="180" height="256">
<path fill-rule="evenodd" clip-rule="evenodd" d="M317 188H426.5L426.5 188L444.182 205.682L460.368 221.868L467.116 228.616L481.385 242.885L492 253.5L492 263.452L492 391.68C472.104 378.829 459.021 345.434 460.954 307.001C461.759 291.004 465.064 276.137 470.17 263.452H448.862C444.457 276.543 441.735 290.975 440.979 305.997C439.612 333.167 444.84 359.064 455.438 379.093C463.417 394.172 475.705 407.91 492 413.997V434.003C487.978 430.457 483.597 427.078 478.988 423.878C456.706 408.41 425.287 394.515 389.998 385.06C384.042 383.464 378.118 382.032 372.255 380.766C369.666 371.607 361.245 364.895 351.257 364.895C339.207 364.895 329.439 374.664 329.439 386.714C329.439 398.763 339.207 408.532 351.257 408.532C358.139 408.532 364.276 405.346 368.275 400.368C373.722 401.548 379.246 402.884 384.822 404.378C420.66 413.981 451.398 428.174 471.331 443H317C314.239 443 312 440.761 312 438V363.848C320.093 362.535 328.162 360.305 335.976 357.375C365.661 346.24 395.885 323.771 420.668 293.34C428.533 283.682 435.502 273.649 441.509 263.452C434.21 263.44 427.646 260.301 423.083 255.303C417.89 263.902 411.907 272.425 405.16 280.71C377.1 315.165 342.316 337.511 312 343.549V193C312 190.238 314.239 188 317 188Z" fill="url(#paint0_linear_20_332)"/>
</mask>
<g mask="url(#mask0_20_332)">
<path fill-rule="evenodd" clip-rule="evenodd" d="M426.5 188H317C314.239 188 312 190.238 312 193V343.549C342.316 337.511 377.1 315.165 405.16 280.71C424.978 256.375 438.202 229.979 444.182 205.682L426.5 188ZM460.368 221.868C452.646 245.953 439.125 270.677 420.668 293.34C395.885 323.771 365.661 346.24 335.976 357.375C328.162 360.305 320.093 362.535 312 363.848V438C312 440.761 314.239 443 317 443H471.331C451.398 428.174 420.66 413.981 384.822 404.378C379.246 402.884 373.722 401.548 368.275 400.368C364.276 405.345 358.139 408.532 351.257 408.532C339.207 408.532 329.439 398.763 329.439 386.713C329.439 374.664 339.207 364.895 351.257 364.895C361.245 364.895 369.666 371.607 372.255 380.766C378.118 382.032 384.042 383.464 389.998 385.06C425.287 394.515 456.706 408.41 478.988 423.878C483.597 427.078 487.978 430.457 492 434.003V413.997C475.705 407.91 463.417 394.172 455.438 379.093C444.84 359.064 439.612 333.167 440.979 305.997C442.346 278.826 450.146 253.585 462.701 234.72C464.085 232.641 465.557 230.6 467.116 228.616L460.368 221.868ZM481.385 242.885C470.038 258.39 462.25 281.23 460.954 307.001C459.021 345.434 472.104 378.829 492 391.68V253.5L481.385 242.885Z" fill="url(#paint1_linear_20_332)"/>
<g filter="url(#filter0_d_20_332)">
<path fill-rule="evenodd" clip-rule="evenodd" d="M416.55 188H426.5L492 253.5V263.452H441.55C427.743 263.452 416.55 252.259 416.55 238.452V188Z" fill="url(#paint2_linear_20_332)"/>
</g>
</g>
</g>
<path d="M545.341 263V210.636H557.307V219.364H557.852C558.807 216.341 560.443 214.011 562.761 212.375C565.102 210.716 567.773 209.886 570.773 209.886C571.455 209.886 572.216 209.92 573.057 209.989C573.92 210.034 574.636 210.114 575.205 210.227V221.58C574.682 221.398 573.852 221.239 572.716 221.102C571.602 220.943 570.523 220.864 569.477 220.864C567.227 220.864 565.205 221.352 563.409 222.33C561.636 223.284 560.239 224.614 559.216 226.318C558.193 228.023 557.682 229.989 557.682 232.216V263H545.341ZM604.429 264.023C599.179 264.023 594.645 262.932 590.827 260.75C587.031 258.545 584.111 255.432 582.065 251.409C580.02 247.364 578.997 242.602 578.997 237.125C578.997 231.739 580.02 227.011 582.065 222.943C584.134 218.852 587.02 215.67 590.724 213.398C594.429 211.102 598.781 209.955 603.781 209.955C607.009 209.955 610.054 210.477 612.918 211.523C615.804 212.545 618.349 214.136 620.554 216.295C622.781 218.455 624.531 221.205 625.804 224.545C627.077 227.864 627.713 231.818 627.713 236.409V240.193H584.793V231.875H615.884C615.861 229.511 615.349 227.409 614.349 225.568C613.349 223.705 611.952 222.239 610.156 221.17C608.384 220.102 606.315 219.568 603.952 219.568C601.429 219.568 599.213 220.182 597.304 221.409C595.395 222.614 593.906 224.205 592.838 226.182C591.793 228.136 591.259 230.284 591.236 232.625V239.886C591.236 242.932 591.793 245.545 592.906 247.727C594.02 249.886 595.577 251.545 597.577 252.705C599.577 253.841 601.918 254.409 604.599 254.409C606.395 254.409 608.02 254.159 609.474 253.659C610.929 253.136 612.19 252.375 613.259 251.375C614.327 250.375 615.134 249.136 615.679 247.659L627.202 248.955C626.474 252 625.088 254.659 623.043 256.932C621.02 259.182 618.429 260.932 615.27 262.182C612.111 263.409 608.497 264.023 604.429 264.023ZM653.222 264.057C649.903 264.057 646.915 263.466 644.256 262.284C641.619 261.08 639.528 259.307 637.983 256.966C636.46 254.625 635.699 251.739 635.699 248.307C635.699 245.352 636.244 242.909 637.335 240.977C638.426 239.045 639.915 237.5 641.801 236.341C643.688 235.182 645.813 234.307 648.176 233.716C650.563 233.102 653.028 232.659 655.574 232.386C658.642 232.068 661.131 231.784 663.04 231.534C664.949 231.261 666.335 230.852 667.199 230.307C668.085 229.739 668.528 228.864 668.528 227.682V227.477C668.528 224.909 667.767 222.92 666.244 221.511C664.722 220.102 662.528 219.398 659.665 219.398C656.642 219.398 654.244 220.057 652.472 221.375C650.722 222.693 649.54 224.25 648.926 226.045L637.403 224.409C638.313 221.227 639.813 218.568 641.903 216.432C643.994 214.273 646.551 212.659 649.574 211.591C652.597 210.5 655.938 209.955 659.597 209.955C662.119 209.955 664.631 210.25 667.131 210.841C669.631 211.432 671.915 212.409 673.983 213.773C676.051 215.114 677.71 216.943 678.96 219.261C680.233 221.58 680.869 224.477 680.869 227.955V263H669.006V255.807H668.597C667.847 257.261 666.79 258.625 665.426 259.898C664.085 261.148 662.392 262.159 660.347 262.932C658.324 263.682 655.949 264.057 653.222 264.057ZM656.426 254.989C658.903 254.989 661.051 254.5 662.869 253.523C664.688 252.523 666.085 251.205 667.062 249.568C668.062 247.932 668.562 246.148 668.562 244.216V238.045C668.176 238.364 667.517 238.659 666.585 238.932C665.676 239.205 664.653 239.443 663.517 239.648C662.381 239.852 661.256 240.034 660.142 240.193C659.028 240.352 658.063 240.489 657.244 240.602C655.403 240.852 653.756 241.261 652.301 241.83C650.847 242.398 649.699 243.193 648.858 244.216C648.017 245.216 647.597 246.511 647.597 248.102C647.597 250.375 648.426 252.091 650.085 253.25C651.744 254.409 653.858 254.989 656.426 254.989ZM716.119 264.023C710.892 264.023 706.403 262.875 702.653 260.58C698.926 258.284 696.051 255.114 694.028 251.068C692.028 247 691.028 242.318 691.028 237.023C691.028 231.705 692.051 227.011 694.097 222.943C696.142 218.852 699.028 215.67 702.756 213.398C706.506 211.102 710.938 209.955 716.051 209.955C720.301 209.955 724.063 210.739 727.335 212.307C730.631 213.852 733.256 216.045 735.21 218.886C737.165 221.705 738.278 225 738.551 228.773H726.756C726.278 226.25 725.142 224.148 723.347 222.466C721.574 220.761 719.199 219.909 716.222 219.909C713.699 219.909 711.483 220.591 709.574 221.955C707.665 223.295 706.176 225.227 705.108 227.75C704.063 230.273 703.54 233.295 703.54 236.818C703.54 240.386 704.063 243.455 705.108 246.023C706.153 248.568 707.619 250.534 709.506 251.92C711.415 253.284 713.653 253.966 716.222 253.966C718.04 253.966 719.665 253.625 721.097 252.943C722.551 252.239 723.767 251.227 724.744 249.909C725.722 248.591 726.392 246.989 726.756 245.102H738.551C738.256 248.807 737.165 252.091 735.278 254.955C733.392 257.795 730.824 260.023 727.574 261.636C724.324 263.227 720.506 264.023 716.119 264.023ZM774.832 210.636V220.182H744.73V210.636H774.832ZM752.162 198.091H764.503V247.25C764.503 248.909 764.753 250.182 765.253 251.068C765.776 251.932 766.457 252.523 767.298 252.841C768.139 253.159 769.071 253.318 770.094 253.318C770.866 253.318 771.571 253.261 772.207 253.148C772.866 253.034 773.366 252.932 773.707 252.841L775.787 262.489C775.128 262.716 774.185 262.966 772.957 263.239C771.753 263.511 770.276 263.67 768.526 263.716C765.435 263.807 762.651 263.341 760.173 262.318C757.696 261.273 755.73 259.659 754.276 257.477C752.844 255.295 752.139 252.568 752.162 249.295V198.091ZM545.341 372.636V300.636H557.477V309.295H558.193C558.83 308.023 559.727 306.67 560.886 305.239C562.045 303.784 563.614 302.545 565.591 301.523C567.568 300.477 570.091 299.955 573.159 299.955C577.205 299.955 580.852 300.989 584.102 303.057C587.375 305.102 589.966 308.136 591.875 312.159C593.807 316.159 594.773 321.068 594.773 326.886C594.773 332.636 593.83 337.523 591.943 341.545C590.057 345.568 587.489 348.636 584.239 350.75C580.989 352.864 577.307 353.92 573.193 353.92C570.193 353.92 567.705 353.42 565.727 352.42C563.75 351.42 562.159 350.216 560.955 348.807C559.773 347.375 558.852 346.023 558.193 344.75H557.682V372.636H545.341ZM557.443 326.818C557.443 330.205 557.92 333.17 558.875 335.716C559.852 338.261 561.25 340.25 563.068 341.682C564.909 343.091 567.136 343.795 569.75 343.795C572.477 343.795 574.761 343.068 576.602 341.614C578.443 340.136 579.83 338.125 580.761 335.58C581.716 333.011 582.193 330.091 582.193 326.818C582.193 323.568 581.727 320.682 580.795 318.159C579.864 315.636 578.477 313.659 576.636 312.227C574.795 310.795 572.5 310.08 569.75 310.08C567.114 310.08 564.875 310.773 563.034 312.159C561.193 313.545 559.795 315.489 558.841 317.989C557.909 320.489 557.443 323.432 557.443 326.818ZM624.773 353.92C620.659 353.92 616.977 352.864 613.727 350.75C610.477 348.636 607.909 345.568 606.023 341.545C604.136 337.523 603.193 332.636 603.193 326.886C603.193 321.068 604.148 316.159 606.057 312.159C607.989 308.136 610.591 305.102 613.864 303.057C617.136 300.989 620.784 299.955 624.807 299.955C627.875 299.955 630.398 300.477 632.375 301.523C634.352 302.545 635.92 303.784 637.08 305.239C638.239 306.67 639.136 308.023 639.773 309.295H640.284V283.182H652.659V353H640.523V344.75H639.773C639.136 346.023 638.216 347.375 637.011 348.807C635.807 350.216 634.216 351.42 632.239 352.42C630.261 353.42 627.773 353.92 624.773 353.92ZM628.216 343.795C630.83 343.795 633.057 343.091 634.898 341.682C636.739 340.25 638.136 338.261 639.091 335.716C640.045 333.17 640.523 330.205 640.523 326.818C640.523 323.432 640.045 320.489 639.091 317.989C638.159 315.489 636.773 313.545 634.932 312.159C633.114 310.773 630.875 310.08 628.216 310.08C625.466 310.08 623.17 310.795 621.33 312.227C619.489 313.659 618.102 315.636 617.17 318.159C616.239 320.682 615.773 323.568 615.773 326.818C615.773 330.091 616.239 333.011 617.17 335.58C618.125 338.125 619.523 340.136 621.364 341.614C623.227 343.068 625.511 343.795 628.216 343.795ZM692.332 300.636V310.182H661.378V300.636H692.332ZM669.116 353V295.693C669.116 292.17 669.844 289.239 671.298 286.898C672.776 284.557 674.753 282.807 677.23 281.648C679.707 280.489 682.457 279.909 685.48 279.909C687.616 279.909 689.514 280.08 691.173 280.42C692.832 280.761 694.06 281.068 694.855 281.341L692.401 290.886C691.878 290.727 691.219 290.568 690.423 290.409C689.628 290.227 688.741 290.136 687.764 290.136C685.469 290.136 683.844 290.693 682.889 291.807C681.957 292.898 681.491 294.466 681.491 296.511V353H669.116ZM701.997 353V300.636H713.793V309.534H714.406C715.497 306.534 717.304 304.193 719.827 302.511C722.349 300.807 725.361 299.955 728.861 299.955C732.406 299.955 735.395 300.818 737.827 302.545C740.281 304.25 742.009 306.58 743.009 309.534H743.554C744.713 306.625 746.668 304.307 749.418 302.58C752.19 300.83 755.474 299.955 759.27 299.955C764.088 299.955 768.02 301.477 771.065 304.523C774.111 307.568 775.634 312.011 775.634 317.852V353H763.259V319.761C763.259 316.511 762.395 314.136 760.668 312.636C758.94 311.114 756.827 310.352 754.327 310.352C751.349 310.352 749.02 311.284 747.338 313.148C745.679 314.989 744.849 317.386 744.849 320.341V353H732.747V319.25C732.747 316.545 731.929 314.386 730.293 312.773C728.679 311.159 726.565 310.352 723.952 310.352C722.179 310.352 720.565 310.807 719.111 311.716C717.656 312.602 716.497 313.864 715.634 315.5C714.77 317.114 714.338 319 714.338 321.159V353H701.997ZM803.222 354.057C799.903 354.057 796.915 353.466 794.256 352.284C791.619 351.08 789.528 349.307 787.983 346.966C786.46 344.625 785.699 341.739 785.699 338.307C785.699 335.352 786.244 332.909 787.335 330.977C788.426 329.045 789.915 327.5 791.801 326.341C793.688 325.182 795.813 324.307 798.176 323.716C800.563 323.102 803.028 322.659 805.574 322.386C808.642 322.068 811.131 321.784 813.04 321.534C814.949 321.261 816.335 320.852 817.199 320.307C818.085 319.739 818.528 318.864 818.528 317.682V317.477C818.528 314.909 817.767 312.92 816.244 311.511C814.722 310.102 812.528 309.398 809.665 309.398C806.642 309.398 804.244 310.057 802.472 311.375C800.722 312.693 799.54 314.25 798.926 316.045L787.403 314.409C788.313 311.227 789.813 308.568 791.903 306.432C793.994 304.273 796.551 302.659 799.574 301.591C802.597 300.5 805.938 299.955 809.597 299.955C812.119 299.955 814.631 300.25 817.131 300.841C819.631 301.432 821.915 302.409 823.983 303.773C826.051 305.114 827.71 306.943 828.96 309.261C830.233 311.58 830.869 314.477 830.869 317.955V353H819.006V345.807H818.597C817.847 347.261 816.79 348.625 815.426 349.898C814.085 351.148 812.392 352.159 810.347 352.932C808.324 353.682 805.949 354.057 803.222 354.057ZM806.426 344.989C808.903 344.989 811.051 344.5 812.869 343.523C814.688 342.523 816.085 341.205 817.062 339.568C818.062 337.932 818.562 336.148 818.562 334.216V328.045C818.176 328.364 817.517 328.659 816.585 328.932C815.676 329.205 814.653 329.443 813.517 329.648C812.381 329.852 811.256 330.034 810.142 330.193C809.028 330.352 808.063 330.489 807.244 330.602C805.403 330.852 803.756 331.261 802.301 331.83C800.847 332.398 799.699 333.193 798.858 334.216C798.017 335.216 797.597 336.511 797.597 338.102C797.597 340.375 798.426 342.091 800.085 343.25C801.744 344.409 803.858 344.989 806.426 344.989ZM854.528 336.568L854.494 321.67H856.472L875.29 300.636H889.71L866.562 326.409H864.006L854.528 336.568ZM843.278 353V283.182H855.619V353H843.278ZM876.142 353L859.097 329.17L867.415 320.477L890.903 353H876.142ZM918.96 354.023C913.71 354.023 909.176 352.932 905.358 350.75C901.563 348.545 898.642 345.432 896.597 341.409C894.551 337.364 893.528 332.602 893.528 327.125C893.528 321.739 894.551 317.011 896.597 312.943C898.665 308.852 901.551 305.67 905.256 303.398C908.96 301.102 913.312 299.955 918.312 299.955C921.54 299.955 924.585 300.477 927.449 301.523C930.335 302.545 932.881 304.136 935.085 306.295C937.313 308.455 939.063 311.205 940.335 314.545C941.608 317.864 942.244 321.818 942.244 326.409V330.193H899.324V321.875H930.415C930.392 319.511 929.881 317.409 928.881 315.568C927.881 313.705 926.483 312.239 924.688 311.17C922.915 310.102 920.847 309.568 918.483 309.568C915.96 309.568 913.744 310.182 911.835 311.409C909.926 312.614 908.438 314.205 907.369 316.182C906.324 318.136 905.79 320.284 905.767 322.625V329.886C905.767 332.932 906.324 335.545 907.438 337.727C908.551 339.886 910.108 341.545 912.108 342.705C914.108 343.841 916.449 344.409 919.131 344.409C920.926 344.409 922.551 344.159 924.006 343.659C925.46 343.136 926.722 342.375 927.79 341.375C928.858 340.375 929.665 339.136 930.21 337.659L941.733 338.955C941.006 342 939.619 344.659 937.574 346.932C935.551 349.182 932.96 350.932 929.801 352.182C926.642 353.409 923.028 354.023 918.96 354.023ZM545.341 443V390.636H557.307V399.364H557.852C558.807 396.341 560.443 394.011 562.761 392.375C565.102 390.716 567.773 389.886 570.773 389.886C571.455 389.886 572.216 389.92 573.057 389.989C573.92 390.034 574.636 390.114 575.205 390.227V401.58C574.682 401.398 573.852 401.239 572.716 401.102C571.602 400.943 570.523 400.864 569.477 400.864C567.227 400.864 565.205 401.352 563.409 402.33C561.636 403.284 560.239 404.614 559.216 406.318C558.193 408.023 557.682 409.989 557.682 412.216V443H545.341ZM604.429 444.023C599.179 444.023 594.645 442.932 590.827 440.75C587.031 438.545 584.111 435.432 582.065 431.409C580.02 427.364 578.997 422.602 578.997 417.125C578.997 411.739 580.02 407.011 582.065 402.943C584.134 398.852 587.02 395.67 590.724 393.398C594.429 391.102 598.781 389.955 603.781 389.955C607.009 389.955 610.054 390.477 612.918 391.523C615.804 392.545 618.349 394.136 620.554 396.295C622.781 398.455 624.531 401.205 625.804 404.545C627.077 407.864 627.713 411.818 627.713 416.409V420.193H584.793V411.875H615.884C615.861 409.511 615.349 407.409 614.349 405.568C613.349 403.705 611.952 402.239 610.156 401.17C608.384 400.102 606.315 399.568 603.952 399.568C601.429 399.568 599.213 400.182 597.304 401.409C595.395 402.614 593.906 404.205 592.838 406.182C591.793 408.136 591.259 410.284 591.236 412.625V419.886C591.236 422.932 591.793 425.545 592.906 427.727C594.02 429.886 595.577 431.545 597.577 432.705C599.577 433.841 601.918 434.409 604.599 434.409C606.395 434.409 608.02 434.159 609.474 433.659C610.929 433.136 612.19 432.375 613.259 431.375C614.327 430.375 615.134 429.136 615.679 427.659L627.202 428.955C626.474 432 625.088 434.659 623.043 436.932C621.02 439.182 618.429 440.932 615.27 442.182C612.111 443.409 608.497 444.023 604.429 444.023ZM660.994 444.023C655.767 444.023 651.278 442.875 647.528 440.58C643.801 438.284 640.926 435.114 638.903 431.068C636.903 427 635.903 422.318 635.903 417.023C635.903 411.705 636.926 407.011 638.972 402.943C641.017 398.852 643.903 395.67 647.631 393.398C651.381 391.102 655.813 389.955 660.926 389.955C665.176 389.955 668.938 390.739 672.21 392.307C675.506 393.852 678.131 396.045 680.085 398.886C682.04 401.705 683.153 405 683.426 408.773H671.631C671.153 406.25 670.017 404.148 668.222 402.466C666.449 400.761 664.074 399.909 661.097 399.909C658.574 399.909 656.358 400.591 654.449 401.955C652.54 403.295 651.051 405.227 649.983 407.75C648.938 410.273 648.415 413.295 648.415 416.818C648.415 420.386 648.938 423.455 649.983 426.023C651.028 428.568 652.494 430.534 654.381 431.92C656.29 433.284 658.528 433.966 661.097 433.966C662.915 433.966 664.54 433.625 665.972 432.943C667.426 432.239 668.642 431.227 669.619 429.909C670.597 428.591 671.267 426.989 671.631 425.102H683.426C683.131 428.807 682.04 432.091 680.153 434.955C678.267 437.795 675.699 440.023 672.449 441.636C669.199 443.227 665.381 444.023 660.994 444.023ZM716.401 444.023C711.287 444.023 706.855 442.898 703.105 440.648C699.355 438.398 696.446 435.25 694.378 431.205C692.332 427.159 691.31 422.432 691.31 417.023C691.31 411.614 692.332 406.875 694.378 402.807C696.446 398.739 699.355 395.58 703.105 393.33C706.855 391.08 711.287 389.955 716.401 389.955C721.514 389.955 725.946 391.08 729.696 393.33C733.446 395.58 736.344 398.739 738.389 402.807C740.457 406.875 741.491 411.614 741.491 417.023C741.491 422.432 740.457 427.159 738.389 431.205C736.344 435.25 733.446 438.398 729.696 440.648C725.946 442.898 721.514 444.023 716.401 444.023ZM716.469 434.136C719.241 434.136 721.56 433.375 723.423 431.852C725.287 430.307 726.673 428.239 727.582 425.648C728.514 423.057 728.98 420.17 728.98 416.989C728.98 413.784 728.514 410.886 727.582 408.295C726.673 405.682 725.287 403.602 723.423 402.057C721.56 400.511 719.241 399.739 716.469 399.739C713.628 399.739 711.264 400.511 709.378 402.057C707.514 403.602 706.116 405.682 705.185 408.295C704.276 410.886 703.821 413.784 703.821 416.989C703.821 420.17 704.276 423.057 705.185 425.648C706.116 428.239 707.514 430.307 709.378 431.852C711.264 433.375 713.628 434.136 716.469 434.136ZM764.307 412.318V443H751.966V390.636H763.761V399.534H764.375C765.58 396.602 767.5 394.273 770.136 392.545C772.795 390.818 776.08 389.955 779.989 389.955C783.602 389.955 786.75 390.727 789.432 392.273C792.136 393.818 794.227 396.057 795.705 398.989C797.205 401.92 797.943 405.477 797.92 409.659V443H785.58V411.568C785.58 408.068 784.67 405.33 782.852 403.352C781.057 401.375 778.568 400.386 775.386 400.386C773.227 400.386 771.307 400.864 769.625 401.818C767.966 402.75 766.659 404.102 765.705 405.875C764.773 407.648 764.307 409.795 764.307 412.318ZM833.307 444.023C828.08 444.023 823.591 442.875 819.841 440.58C816.114 438.284 813.239 435.114 811.216 431.068C809.216 427 808.216 422.318 808.216 417.023C808.216 411.705 809.239 407.011 811.284 402.943C813.33 398.852 816.216 395.67 819.943 393.398C823.693 391.102 828.125 389.955 833.239 389.955C837.489 389.955 841.25 390.739 844.523 392.307C847.818 393.852 850.443 396.045 852.398 398.886C854.352 401.705 855.466 405 855.739 408.773H843.943C843.466 406.25 842.33 404.148 840.534 402.466C838.761 400.761 836.386 399.909 833.409 399.909C830.886 399.909 828.67 400.591 826.761 401.955C824.852 403.295 823.364 405.227 822.295 407.75C821.25 410.273 820.727 413.295 820.727 416.818C820.727 420.386 821.25 423.455 822.295 426.023C823.341 428.568 824.807 430.534 826.693 431.92C828.602 433.284 830.841 433.966 833.409 433.966C835.227 433.966 836.852 433.625 838.284 432.943C839.739 432.239 840.955 431.227 841.932 429.909C842.909 428.591 843.58 426.989 843.943 425.102H855.739C855.443 428.807 854.352 432.091 852.466 434.955C850.58 437.795 848.011 440.023 844.761 441.636C841.511 443.227 837.693 444.023 833.307 444.023ZM865.872 443V390.636H878.213V443H865.872ZM872.077 383.205C870.122 383.205 868.44 382.557 867.031 381.261C865.622 379.943 864.918 378.364 864.918 376.523C864.918 374.659 865.622 373.08 867.031 371.784C868.44 370.466 870.122 369.807 872.077 369.807C874.054 369.807 875.736 370.466 877.122 371.784C878.531 373.08 879.236 374.659 879.236 376.523C879.236 378.364 878.531 379.943 877.122 381.261C875.736 382.557 874.054 383.205 872.077 383.205ZM903.244 373.182V443H890.903V373.182H903.244ZM939.116 444.023C933.866 444.023 929.332 442.932 925.514 440.75C921.719 438.545 918.798 435.432 916.753 431.409C914.707 427.364 913.685 422.602 913.685 417.125C913.685 411.739 914.707 407.011 916.753 402.943C918.821 398.852 921.707 395.67 925.412 393.398C929.116 391.102 933.469 389.955 938.469 389.955C941.696 389.955 944.741 390.477 947.605 391.523C950.491 392.545 953.037 394.136 955.241 396.295C957.469 398.455 959.219 401.205 960.491 404.545C961.764 407.864 962.401 411.818 962.401 416.409V420.193H919.48V411.875H950.571C950.548 409.511 950.037 407.409 949.037 405.568C948.037 403.705 946.639 402.239 944.844 401.17C943.071 400.102 941.003 399.568 938.639 399.568C936.116 399.568 933.901 400.182 931.991 401.409C930.082 402.614 928.594 404.205 927.526 406.182C926.48 408.136 925.946 410.284 925.923 412.625V419.886C925.923 422.932 926.48 425.545 927.594 427.727C928.707 429.886 930.264 431.545 932.264 432.705C934.264 433.841 936.605 434.409 939.287 434.409C941.082 434.409 942.707 434.159 944.162 433.659C945.616 433.136 946.878 432.375 947.946 431.375C949.014 430.375 949.821 429.136 950.366 427.659L961.889 428.955C961.162 432 959.776 434.659 957.73 436.932C955.707 439.182 953.116 440.932 949.957 442.182C946.798 443.409 943.185 444.023 939.116 444.023ZM972.841 443V390.636H984.807V399.364H985.352C986.307 396.341 987.943 394.011 990.261 392.375C992.602 390.716 995.273 389.886 998.273 389.886C998.955 389.886 999.716 389.92 1000.56 389.989C1001.42 390.034 1002.14 390.114 1002.7 390.227V401.58C1002.18 401.398 1001.35 401.239 1000.22 401.102C999.102 400.943 998.023 400.864 996.977 400.864C994.727 400.864 992.705 401.352 990.909 402.33C989.136 403.284 987.739 404.614 986.716 406.318C985.693 408.023 985.182 409.989 985.182 412.216V443H972.841Z" fill="#2CAEC6"/>
<defs>
<filter id="filter0_d_20_332" x="376.55" y="148" width="155.45" height="155.452" filterUnits="userSpaceOnUse" color-interpolation-filters="sRGB">
<feFlood flood-opacity="0" result="BackgroundImageFix"/>
<feColorMatrix in="SourceAlpha" type="matrix" values="0 0 0 0 0 0 0 0 0 0 0 0 0 0 0 0 0 0 127 0" result="hardAlpha"/>
<feOffset/>
<feGaussianBlur stdDeviation="20"/>
<feComposite in2="hardAlpha" operator="out"/>
<feColorMatrix type="matrix" values="0 0 0 0 0 0 0 0 0 0.43097 0 0 0 0 0.534722 0 0 0 1 0"/>
<feBlend mode="normal" in2="BackgroundImageFix" result="effect1_dropShadow_20_332"/>
<feBlend mode="normal" in="SourceGraphic" in2="effect1_dropShadow_20_332" result="shape"/>
</filter>
<linearGradient id="paint0_linear_20_332" x1="492" y1="188" x2="312" y2="443" gradientUnits="userSpaceOnUse">
<stop stop-color="#39C5D6"/>
<stop offset="1" stop-color="#2790B0"/>
</linearGradient>
<linearGradient id="paint1_linear_20_332" x1="492" y1="188" x2="312" y2="443" gradientUnits="userSpaceOnUse">
<stop stop-color="#39C5D6"/>
<stop offset="1" stop-color="#2790B0"/>
</linearGradient>
<linearGradient id="paint2_linear_20_332" x1="492" y1="188" x2="417" y2="263" gradientUnits="userSpaceOnUse">
<stop stop-color="#596668"/>
<stop offset="1" stop-color="#242626"/>
</linearGradient>
<clipPath id="clip0_20_332">
<rect width="256" height="256" fill="white" transform="translate(274 188)"/>
</clipPath>
</defs>
</svg>
