<?xml version="1.0" standalone="no"?>
<!DOCTYPE svg PUBLIC "-//W3C//DTD SVG 20010904//EN"
 "http://www.w3.org/TR/2001/REC-SVG-20010904/DTD/svg10.dtd">
<svg version="1.0" xmlns="http://www.w3.org/2000/svg"
 width="1280.000000pt" height="1280.000000pt" viewBox="0 0 1280.000000 1280.000000"
 preserveAspectRatio="xMidYMid meet">
<g transform="translate(0.000000,1280.000000) scale(0.100000,-0.100000)"
fill="#000000" stroke="none">
<path d="M9886 11343 c-3 -4 -79 -15 -98 -14 -10 0 -18 -5 -18 -11 0 -5 -7 -8
-15 -4 -8 3 -15 1 -15 -4 0 -6 -3 -9 -7 -9 -21 3 -44 -2 -39 -9 2 -4 -4 -9
-15 -10 -42 -4 -49 -6 -49 -13 0 -8 -40 -24 -52 -21 -5 1 -8 -2 -8 -7 0 -5
-13 -14 -30 -21 -16 -7 -30 -17 -30 -22 0 -5 -4 -7 -9 -3 -5 3 -12 1 -16 -5
-4 -6 -11 -7 -17 -4 -6 4 -8 2 -4 -4 4 -6 -8 -16 -28 -23 -19 -7 -33 -15 -31
-19 2 -3 -5 -12 -17 -19 -16 -10 -19 -10 -13 1 5 7 -2 3 -14 -10 -12 -12 -26
-20 -32 -17 -5 4 -9 -2 -9 -11 0 -10 -3 -14 -6 -11 -6 6 -24 -6 -81 -54 -7 -5
-13 -7 -13 -4 0 6 -16 -6 -51 -37 -10 -10 -25 -18 -33 -18 -8 0 -18 -5 -22
-12 -5 -8 -2 -9 9 -5 10 3 17 4 17 1 0 -6 -53 -28 -63 -25 -5 1 -6 -2 -4 -6 3
-5 -1 -14 -9 -21 -8 -7 -14 -10 -14 -7 0 4 -14 -7 -31 -24 -17 -17 -37 -31
-45 -31 -9 0 -13 -3 -11 -7 5 -10 -30 -43 -37 -36 -3 4 -6 1 -6 -5 0 -7 -5
-12 -11 -12 -14 0 -39 -25 -39 -39 0 -6 -3 -10 -8 -8 -8 2 -21 -8 -82 -65 -22
-20 -40 -35 -40 -33 0 3 -20 -15 -45 -39 -25 -25 -45 -42 -45 -39 0 3 -19 -14
-42 -38 -23 -24 -36 -35 -29 -24 7 11 -1 4 -19 -15 -17 -19 -36 -34 -41 -32
-6 1 -8 -1 -6 -5 3 -5 -8 -21 -24 -36 -16 -16 -29 -25 -29 -21 0 4 -9 -4 -21
-17 -12 -13 -26 -22 -33 -21 -6 2 -8 0 -4 -4 4 -4 2 -14 -5 -22 -10 -13 -9
-14 3 -7 13 8 13 7 1 -8 -9 -11 -10 -17 -2 -17 6 0 10 -6 9 -12 -2 -7 5 -12
15 -10 9 2 17 -2 17 -8 0 -7 7 -5 16 4 8 9 22 16 30 16 8 0 14 7 14 16 0 8 5
12 10 9 6 -3 10 -2 10 3 0 5 11 15 25 22 13 7 22 17 19 21 -3 5 3 6 12 2 12
-4 15 -3 10 5 -4 7 -1 12 7 12 8 0 18 7 21 16 3 8 10 12 16 9 5 -3 10 -1 10 4
0 6 7 11 15 11 7 0 18 6 22 13 11 16 83 70 83 61 0 -4 8 2 18 12 9 11 29 25
45 33 15 8 27 18 27 23 0 5 4 7 10 3 5 -3 18 3 30 15 11 11 20 17 20 14 0 -4
7 -1 15 6 8 6 18 9 24 6 5 -3 11 1 15 9 3 8 12 15 20 15 16 0 79 31 84 42 2 4
10 4 18 1 8 -3 14 0 14 7 0 7 7 10 15 6 8 -3 15 -1 15 5 0 6 4 8 9 4 5 -3 12
-1 15 4 3 5 22 8 41 7 19 -1 35 1 35 5 0 9 50 0 80 -14 14 -6 35 -23 48 -37
40 -45 44 -50 31 -50 -8 0 -6 -7 4 -18 13 -14 14 -21 5 -30 -9 -9 -9 -12 1
-12 7 0 10 -4 7 -9 -4 -5 0 -12 6 -14 7 -3 8 -6 3 -6 -7 -1 -9 -23 -5 -60 3
-34 2 -57 -3 -54 -5 3 -6 -5 -2 -17 5 -16 4 -20 -5 -15 -9 6 -9 3 -1 -14 7
-11 8 -21 3 -21 -4 0 -7 -13 -6 -30 1 -16 -1 -30 -5 -30 -4 0 -7 -10 -8 -22 0
-13 -3 -34 -6 -48 -3 -14 -6 -31 -6 -38 -1 -7 -4 -11 -8 -9 -5 3 -8 -9 -7 -26
0 -18 -6 -43 -13 -55 -8 -13 -12 -26 -9 -30 3 -3 -1 -16 -10 -30 -11 -17 -12
-22 -3 -16 11 6 12 5 2 -8 -7 -8 -10 -18 -6 -21 3 -4 1 -7 -6 -7 -7 0 -10 -3
-8 -8 3 -4 -3 -24 -13 -45 -10 -20 -14 -34 -8 -31 5 4 3 -5 -6 -18 -9 -14 -13
-28 -9 -31 3 -4 2 -7 -4 -7 -9 0 -28 -54 -24 -72 0 -5 -3 -8 -8 -8 -5 0 -12
-13 -16 -30 -4 -16 -10 -30 -14 -30 -4 0 -8 -6 -8 -14 0 -7 -10 -36 -23 -62
-13 -27 -23 -55 -23 -61 0 -7 -4 -13 -8 -13 -3 0 -9 -8 -11 -17 -8 -30 -11
-37 -35 -84 -13 -26 -23 -52 -23 -59 0 -6 -4 -8 -10 -5 -6 3 -7 -1 -4 -9 3 -9
1 -16 -6 -16 -6 0 -8 -4 -5 -10 3 -5 1 -10 -6 -10 -7 0 -9 -3 -6 -6 3 -4 0
-16 -8 -26 -7 -11 -11 -27 -8 -36 4 -10 2 -13 -5 -8 -7 4 -12 2 -12 -5 0 -7
-8 -21 -17 -32 -13 -15 -14 -18 -3 -12 11 6 10 3 -3 -12 -9 -11 -14 -23 -11
-26 4 -4 0 -9 -9 -13 -9 -3 -13 -12 -10 -21 4 -11 2 -14 -5 -9 -8 5 -12 0 -12
-12 0 -10 -9 -29 -20 -42 -23 -27 -25 -34 -7 -25 6 4 4 0 -6 -8 -10 -9 -19
-19 -19 -24 -1 -14 -33 -78 -40 -81 -5 -2 -8 -10 -8 -18 0 -8 -5 -14 -11 -14
-5 0 -7 -4 -4 -10 3 -5 1 -10 -5 -10 -6 0 -9 -4 -5 -9 3 -6 -4 -19 -16 -30
-12 -11 -19 -25 -17 -33 3 -7 0 -18 -6 -25 -28 -31 -33 -40 -40 -66 -3 -15
-11 -27 -16 -27 -6 0 -10 -6 -10 -12 0 -7 -10 -29 -22 -48 -12 -19 -23 -41
-24 -47 -1 -7 -9 -20 -18 -29 -14 -14 -17 -22 -15 -40 0 -3 -9 -14 -20 -23
-11 -10 -18 -21 -15 -24 3 -3 -3 -16 -15 -28 -11 -12 -18 -25 -16 -29 3 -4 -2
-13 -10 -20 -8 -7 -15 -19 -15 -27 0 -8 -5 -11 -12 -7 -7 4 -10 4 -6 -1 8 -8
-21 -65 -32 -65 -4 0 -7 -6 -7 -13 0 -14 -54 -100 -66 -105 -4 -2 -5 -7 -2
-12 3 -5 -2 -16 -11 -24 -8 -9 -12 -16 -8 -16 4 0 -1 -7 -12 -15 -10 -8 -15
-15 -11 -15 5 0 -1 -13 -12 -29 -12 -16 -21 -34 -21 -40 0 -6 -4 -11 -10 -11
-5 0 -10 -4 -10 -10 0 -18 -57 -99 -65 -92 -5 4 -5 2 -1 -5 6 -11 -26 -69 -58
-105 -9 -10 -13 -18 -9 -18 3 0 -2 -9 -12 -20 -10 -11 -15 -20 -11 -20 4 0 -2
-10 -14 -22 -11 -12 -20 -28 -20 -35 0 -7 -3 -13 -8 -13 -7 0 -25 -30 -38 -62
-3 -10 -10 -18 -15 -18 -5 0 -9 -7 -9 -15 0 -9 -7 -18 -15 -21 -8 -4 -12 -10
-9 -15 3 -5 -2 -12 -10 -15 -9 -3 -13 -10 -11 -15 3 -4 -3 -16 -15 -26 -58
-52 -58 -51 -70 -40 -8 9 -9 7 -4 -7 5 -13 4 -17 -3 -13 -6 4 -18 0 -27 -8 -8
-9 -17 -15 -18 -14 -8 5 -48 -14 -48 -22 0 -6 -4 -7 -10 -4 -5 3 -10 1 -10 -5
0 -7 -6 -10 -12 -8 -7 3 -22 -4 -32 -14 -11 -10 -26 -16 -33 -14 -7 3 -13 0
-13 -6 0 -21 -21 7 -23 31 -1 11 -4 21 -7 21 -4 0 -12 16 -20 35 -8 19 -17 35
-22 35 -4 0 -8 7 -8 15 0 7 -7 18 -16 23 -8 5 -24 22 -35 38 -10 16 -19 26
-19 21 0 -4 -14 6 -31 23 -18 16 -38 30 -45 30 -8 0 -14 5 -14 11 0 5 -4 7
-10 4 -5 -3 -10 -3 -10 2 0 11 -49 33 -72 33 -10 0 -18 5 -18 11 0 6 -7 9 -15
5 -8 -3 -15 -1 -15 4 0 5 -7 7 -15 4 -8 -4 -15 -1 -15 6 0 6 -5 8 -10 5 -6 -4
-17 -1 -25 5 -8 7 -15 9 -15 5 0 -4 -7 -2 -15 5 -12 10 -15 10 -15 0 0 -9 -4
-9 -17 1 -9 8 -18 13 -20 12 -1 -2 -4 -3 -5 -2 -2 0 -28 2 -58 3 -30 1 -61 5
-67 9 -7 5 -13 4 -13 -2 0 -6 -6 -8 -14 -5 -8 3 -52 7 -98 9 -46 1 -87 3 -92
4 -5 0 -5 16 -1 34 4 17 7 40 7 50 -1 9 3 17 8 17 4 0 6 9 3 20 -3 11 -1 20 3
20 5 0 10 10 10 23 3 34 10 72 16 82 3 6 4 20 3 33 -1 12 3 22 8 22 5 0 7 6 4
14 -3 8 -3 17 1 20 7 8 12 32 14 64 0 12 4 22 8 22 3 0 6 10 5 23 -1 12 0 26
3 32 10 17 11 65 1 71 -5 3 -7 10 -4 15 3 5 0 6 -8 3 -8 -3 -18 -1 -21 5 -5 7
-13 7 -26 -1 -10 -7 -16 -16 -14 -20 3 -4 1 -8 -5 -8 -8 0 -23 -43 -25 -72 -1
-3 -4 -10 -8 -14 -5 -4 -8 -18 -8 -31 0 -13 -4 -22 -9 -18 -6 3 -8 -4 -6 -15
2 -11 -1 -20 -6 -20 -6 0 -7 -5 -4 -10 4 -6 1 -18 -7 -27 -8 -10 -8 -14 -1
-10 7 4 5 -6 -5 -25 -9 -18 -18 -39 -19 -45 -6 -28 -9 -37 -29 -88 -4 -11 -7
-23 -6 -27 1 -4 -3 -20 -10 -35 -6 -15 -12 -31 -12 -35 -1 -3 -4 -9 -8 -13 -4
-4 -4 -13 -1 -21 3 -8 -2 -17 -11 -20 -9 -3 -14 -10 -11 -14 3 -4 -35 -7 -83
-6 -48 1 -95 -1 -104 -6 -10 -5 -18 -5 -18 -1 0 10 -201 9 -218 -1 -6 -4 -12
-4 -12 1 0 10 -162 9 -178 -1 -6 -3 -14 -2 -17 4 -5 8 -11 8 -19 1 -7 -6 -15
-9 -17 -7 -10 10 -59 14 -59 5 0 -6 -5 -7 -12 -3 -14 9 -92 9 -106 0 -6 -3
-13 -2 -16 2 -3 5 -15 8 -28 7 -22 -2 -58 32 -58 54 0 6 -5 11 -12 11 -6 0 -9
3 -5 6 3 4 -1 13 -9 21 -8 8 -11 20 -7 26 3 7 3 9 -1 5 -11 -10 -34 14 -29 29
3 7 -2 13 -12 13 -9 0 -14 4 -10 9 3 5 -2 16 -10 24 -8 9 -15 20 -15 26 0 6
-4 11 -10 11 -5 0 -10 7 -10 15 0 8 -5 15 -11 15 -5 0 -7 5 -4 10 3 6 2 10 -4
10 -5 0 -12 8 -15 18 -4 10 -14 27 -24 38 -23 26 -54 74 -47 74 3 0 0 6 -7 14
-7 8 -16 12 -20 9 -4 -2 -6 2 -3 9 3 7 -6 25 -19 39 -14 15 -22 30 -19 33 4 3
0 6 -7 6 -7 0 -10 3 -7 6 4 4 -3 15 -15 25 -11 11 -18 19 -14 19 4 0 -4 15
-18 33 -15 19 -26 37 -26 41 0 4 -6 14 -14 22 -8 7 -16 19 -18 24 -5 15 -57
20 -66 6 -13 -20 -10 -76 5 -76 8 0 13 -12 13 -30 0 -17 7 -33 18 -39 9 -6 13
-11 7 -11 -5 0 -4 -4 3 -9 7 -4 14 -16 16 -25 1 -10 9 -22 17 -27 8 -5 10 -9
6 -9 -7 0 51 -119 64 -130 3 -3 9 -18 13 -33 4 -15 11 -25 16 -22 6 3 7 -1 4
-9 -3 -9 -1 -16 5 -16 6 0 11 -7 11 -15 0 -8 4 -15 10 -15 5 0 7 -7 4 -15 -4
-8 -1 -15 6 -15 6 0 8 -4 5 -10 -3 -5 -1 -10 4 -10 6 0 11 -9 11 -20 0 -11 5
-20 11 -20 5 0 7 -4 4 -10 -3 -5 -1 -10 5 -10 6 0 9 -4 6 -9 -3 -5 1 -11 9
-15 8 -3 12 -12 9 -21 -3 -8 -1 -15 5 -15 6 0 11 -7 11 -16 0 -8 4 -12 10 -9
6 4 7 -2 1 -17 -8 -23 -9 -23 -212 -24 -150 0 -203 -4 -202 -12 2 -7 -1 -12
-5 -12 -10 0 -10 -71 1 -87 4 -6 3 -14 -2 -17 -10 -7 -9 -25 2 -43 4 -6 3 -14
-1 -17 -10 -6 -10 -46 1 -62 3 -6 3 -14 -1 -18 -10 -11 -10 -79 0 -100 6 -11
6 -16 1 -13 -6 4 -9 -15 -9 -43 1 -28 5 -50 11 -50 6 0 6 -3 0 -8 -6 -4 -11
-16 -11 -27 0 -11 5 -23 11 -27 7 -5 7 -8 0 -8 -6 0 -11 -11 -11 -25 0 -14 5
-25 11 -25 6 0 7 -3 0 -8 -14 -10 -15 -52 -1 -52 7 0 8 -3 1 -8 -6 -4 -11 -16
-11 -27 0 -11 5 -23 11 -27 7 -5 6 -8 -1 -8 -11 0 -12 -28 -1 -46 3 -6 3 -14
-1 -18 -10 -11 -9 -40 3 -48 6 -5 5 -8 -2 -8 -7 0 -13 -8 -13 -18 0 -15 -6
-18 -30 -14 -17 2 -30 7 -30 11 0 6 -20 10 -80 14 -14 1 -28 6 -31 10 -3 5
-20 9 -37 9 -18 1 -32 6 -32 12 0 6 -5 4 -10 -4 -8 -12 -10 -12 -10 -1 0 8 -7
11 -20 8 -11 -3 -20 -1 -20 4 0 4 -7 6 -15 3 -8 -4 -15 -1 -15 5 0 6 -7 8 -15
5 -8 -4 -21 -2 -28 3 -6 4 -24 8 -39 7 -16 0 -28 2 -28 6 0 4 -6 7 -12 7 -32
2 -75 10 -84 15 -11 8 -46 -16 -37 -25 3 -4 1 -7 -5 -7 -8 0 -8 -8 -1 -30 10
-26 25 -35 52 -31 4 0 7 -4 7 -10 0 -6 7 -8 15 -5 9 3 18 -1 22 -9 3 -10 12
-13 23 -10 10 3 21 1 25 -5 3 -6 11 -8 16 -4 5 3 16 0 24 -6 8 -7 15 -9 15 -5
0 4 7 2 15 -5 8 -6 19 -9 25 -5 5 3 10 1 10 -5 0 -6 4 -9 8 -6 5 3 20 -1 35
-9 15 -8 27 -11 27 -8 0 3 7 0 15 -7 8 -6 19 -9 24 -6 5 4 12 2 16 -4 4 -6 11
-8 16 -5 5 4 9 2 9 -3 0 -5 7 -9 15 -10 8 -1 22 -3 30 -4 8 -1 15 -6 15 -12 0
-6 5 -4 10 4 7 11 10 11 10 2 0 -7 5 -10 10 -7 6 3 10 2 10 -3 0 -9 6 -10 53
-13 25 -2 25 -3 29 -59 2 -19 7 -38 13 -42 6 -5 6 -8 -1 -8 -9 0 -12 -53 -4
-85 1 -5 1 -12 0 -15 -8 -18 -4 -120 4 -120 8 0 8 -3 1 -8 -12 -8 -14 -91 -3
-108 4 -6 4 -14 0 -18 -11 -12 -9 -96 2 -96 7 0 8 -3 1 -8 -14 -9 -14 -112 0
-112 7 0 7 -3 0 -8 -14 -9 -14 -85 0 -94 7 -5 6 -8 -1 -8 -12 0 -12 -28 -1
-47 4 -6 3 -14 -3 -18 -6 -4 -8 -9 -6 -13 2 -4 -2 -13 -10 -20 -8 -7 -14 -9
-14 -5 0 4 -4 3 -8 -2 -8 -12 -89 -65 -97 -65 -4 0 -26 -13 -50 -30 -24 -16
-48 -30 -54 -30 -5 0 -15 -8 -20 -17 -6 -10 -11 -14 -11 -10 0 5 -12 -1 -26
-12 -15 -12 -33 -21 -40 -21 -8 0 -14 -4 -14 -10 0 -5 -7 -10 -15 -10 -8 0
-15 -4 -15 -10 0 -5 -7 -10 -15 -10 -9 0 -18 -7 -21 -15 -4 -8 -10 -12 -15 -9
-5 3 -16 -1 -24 -8 -36 -33 -50 -43 -52 -38 -1 3 -12 -3 -23 -12 -11 -10 -24
-18 -29 -18 -5 0 -16 -7 -24 -15 -8 -8 -21 -16 -28 -17 -8 -2 -22 -11 -31 -21
-9 -10 -18 -18 -20 -17 -10 4 -58 -21 -58 -30 0 -6 -4 -8 -10 -5 -5 3 -10 2
-10 -3 0 -5 -15 -15 -33 -23 -17 -7 -36 -19 -40 -26 -5 -7 -12 -11 -18 -8 -5
4 -9 2 -9 -3 0 -5 -16 -17 -35 -26 -19 -9 -35 -21 -35 -27 0 -6 -4 -7 -10 -4
-5 3 -17 -3 -26 -14 -10 -11 -24 -17 -32 -13 -8 3 -13 1 -9 -4 5 -8 -48 -39
-63 -37 -3 0 -11 -8 -18 -19 -7 -10 -17 -16 -22 -13 -5 3 -14 -4 -20 -15 -6
-11 -15 -18 -20 -15 -4 3 -15 -1 -23 -9 -8 -8 -17 -12 -21 -9 -3 4 -6 1 -6 -6
0 -7 -4 -9 -10 -6 -5 3 -10 1 -10 -5 0 -6 -13 -16 -30 -21 -16 -6 -30 -15 -30
-20 0 -5 -7 -9 -15 -9 -8 0 -15 -5 -15 -12 0 -6 -3 -9 -6 -5 -4 3 -13 -1 -21
-9 -8 -8 -18 -12 -23 -9 -4 3 -11 -2 -14 -11 -3 -8 -10 -12 -16 -9 -5 3 -10 1
-10 -5 0 -6 -16 -18 -35 -26 -19 -8 -35 -19 -35 -25 0 -5 -4 -8 -9 -5 -5 3
-14 -1 -21 -9 -7 -8 -18 -15 -26 -15 -7 0 -18 -8 -23 -17 -6 -10 -11 -15 -11
-11 0 4 -26 -9 -57 -29 -32 -20 -63 -36 -70 -36 -6 0 -11 -5 -10 -11 1 -6 -4
-10 -10 -8 -7 1 -13 -3 -13 -9 0 -5 -4 -7 -10 -4 -5 3 -10 2 -10 -2 0 -9 -55
-45 -66 -43 -4 1 -10 -3 -13 -8 -3 -6 -13 -12 -21 -14 -8 -2 -21 -11 -28 -21
-7 -9 -18 -15 -23 -12 -5 4 -9 1 -9 -5 0 -6 -4 -9 -9 -6 -5 4 -11 2 -13 -2 -1
-5 -33 -26 -70 -49 -38 -22 -65 -43 -61 -47 4 -4 0 -4 -10 0 -10 3 -17 1 -17
-5 0 -6 -5 -11 -11 -11 -7 0 -18 -8 -26 -17 -9 -11 -12 -12 -7 -3 4 8 -4 5
-18 -8 -13 -12 -28 -19 -31 -15 -4 3 -7 1 -7 -6 0 -7 -5 -9 -10 -6 -6 3 -13
-1 -16 -9 -3 -9 -12 -16 -20 -16 -8 0 -14 -4 -14 -10 0 -5 -7 -6 -17 -3 -11 4
-14 3 -9 -5 4 -7 1 -12 -8 -12 -8 0 -20 -8 -25 -17 -6 -10 -11 -15 -11 -10 0
9 -52 -23 -63 -40 -4 -6 -16 -10 -27 -8 -11 2 -18 0 -15 -5 7 -11 -30 -32 -39
-23 -3 3 -6 1 -6 -5 0 -7 -5 -12 -11 -12 -6 0 -17 -7 -26 -15 -8 -8 -19 -12
-25 -9 -7 4 -8 2 -4 -4 6 -11 -6 -16 -26 -13 -5 0 -8 -6 -8 -15 0 -8 -4 -13
-9 -10 -4 3 -15 0 -24 -7 -19 -15 -27 -63 -9 -59 6 1 11 -3 10 -10 -2 -8 10
-13 29 -13 18 -1 33 3 33 7 0 5 4 6 10 3 5 -3 10 -1 10 5 0 7 7 9 16 6 8 -3
13 -2 11 2 -3 4 7 16 21 26 14 11 22 14 18 8 -12 -20 9 -13 24 7 7 11 17 18
21 15 4 -2 14 2 22 10 8 8 17 12 21 9 3 -3 8 1 12 10 3 9 12 13 20 10 7 -3 17
2 20 11 3 9 10 14 14 11 5 -3 16 2 24 11 9 8 16 13 16 9 0 -3 13 3 29 14 15
11 30 18 33 15 3 -2 11 2 18 11 7 8 19 15 26 15 8 0 14 4 14 8 0 9 91 48 103
44 5 -1 6 2 3 7 -6 9 62 47 77 43 4 -1 7 2 7 8 0 5 6 10 14 10 8 0 21 6 28 13
7 6 31 21 53 32 22 10 52 27 66 37 14 9 29 15 33 11 3 -3 6 -1 6 6 0 7 5 9 10
6 6 -3 10 -1 10 4 0 6 4 11 10 11 5 0 31 13 59 29 27 16 52 27 55 24 3 -4 6
-1 6 6 0 7 5 9 10 6 5 -3 10 -2 10 3 0 9 70 47 83 44 4 -1 7 2 7 8 0 5 4 10
10 10 5 0 32 13 60 30 27 16 50 27 50 23 0 -4 11 4 25 17 14 13 25 19 25 14 0
-5 4 -4 8 1 13 18 169 95 177 87 5 -4 5 -1 1 6 -4 7 -1 12 7 12 8 0 20 7 27
15 7 8 16 13 20 10 5 -3 15 2 23 10 9 8 22 15 29 15 7 0 24 9 38 20 14 11 29
20 34 20 5 0 15 8 22 18 10 13 13 14 14 3 0 -11 6 -8 20 7 12 12 27 22 35 22
8 0 15 5 15 11 0 5 4 8 10 4 5 -3 18 3 30 15 11 11 20 18 20 15 0 -3 14 1 30
10 17 9 30 20 30 26 0 8 5 7 16 -1 8 -8 14 -9 12 -3 -2 6 2 12 7 13 6 1 18 8
27 17 9 8 22 12 29 7 7 -4 10 -3 6 3 -7 10 48 38 66 34 5 -1 6 3 3 8 -4 5 10
15 29 21 19 6 33 15 31 19 -3 4 1 8 9 9 8 1 22 3 30 4 8 1 16 7 19 15 3 7 15
13 26 13 11 0 20 4 20 8 0 8 63 42 75 42 3 -1 13 6 21 15 9 8 20 13 25 10 5
-4 9 -1 9 4 0 6 7 11 15 11 8 0 15 5 15 11 0 5 4 8 9 4 6 -3 14 3 20 12 5 10
12 17 16 15 9 -5 95 41 95 50 0 5 4 7 9 3 5 -3 12 -1 16 5 4 6 11 8 16 5 5 -4
9 0 10 7 0 7 4 4 8 -7 5 -11 7 -33 6 -48 -2 -15 1 -27 6 -27 6 0 7 -6 2 -12
-11 -18 -11 -108 0 -108 5 0 5 -6 0 -12 -13 -17 -12 -48 1 -48 7 0 7 -3 1 -8
-5 -4 -10 -14 -10 -22 0 -8 5 -18 10 -22 6 -5 6 -8 -1 -8 -14 0 -13 -42 1 -52
6 -5 6 -8 -2 -8 -13 0 -12 -18 1 -39 7 -11 6 -12 -5 -6 -12 8 -12 6 0 -8 8
-10 19 -16 25 -14 6 2 20 1 31 -3 11 -4 29 -4 40 0 11 4 28 3 38 -2 9 -5 17
-5 17 0 0 9 53 8 69 -3 6 -3 11 -2 11 2 0 10 41 10 58 -1 7 -4 12 -3 12 1 0 9
79 8 87 -1 3 -3 15 -1 27 4 13 4 29 4 39 -1 9 -6 17 -6 17 -1 0 9 53 8 69 -3
6 -3 11 -2 11 2 0 5 9 9 20 10 11 1 20 -4 20 -10 0 -7 4 -6 10 3 6 10 10 11
10 3 0 -9 7 -10 23 -4 13 5 30 5 39 0 11 -6 19 -5 23 1 4 7 13 6 27 -1 15 -8
19 -8 14 0 -8 13 0 13 29 2 11 -5 28 -5 37 0 11 6 20 5 25 -3 10 -16 11 -78 0
-78 -4 0 -6 -3 -5 -7 4 -17 -15 -99 -26 -112 -9 -12 -8 -13 4 -6 12 7 13 6 4
-6 -6 -8 -11 -28 -10 -46 0 -17 -2 -29 -6 -26 -7 4 -12 -28 -11 -65 1 -6 -3
-12 -8 -12 -5 0 -5 -7 -2 -17 5 -12 3 -14 -8 -8 -11 6 -12 5 -2 -5 8 -9 9 -19
2 -32 -5 -10 -7 -23 -4 -28 3 -6 2 -10 -4 -10 -5 0 -8 -8 -7 -17 3 -18 -9 -46
-29 -69 -5 -6 -21 -26 -35 -44 -14 -19 -37 -46 -52 -62 -15 -15 -25 -28 -21
-28 3 0 -6 -11 -20 -24 -14 -13 -23 -27 -20 -30 4 -3 -1 -6 -11 -6 -9 0 -15
-4 -12 -8 3 -5 -15 -30 -39 -57 -25 -27 -45 -51 -45 -53 0 -3 -12 -15 -27 -28
-16 -13 -25 -24 -21 -24 5 0 -12 -20 -36 -44 -24 -25 -41 -47 -38 -50 3 -4 -2
-6 -12 -6 -9 0 -14 -4 -11 -10 3 -5 1 -10 -5 -10 -6 0 -9 -4 -5 -9 3 -5 -4
-12 -15 -16 -11 -3 -20 -12 -20 -19 0 -7 -11 -21 -24 -32 -14 -10 -23 -21 -20
-26 3 -4 -2 -8 -10 -8 -9 0 -15 -3 -14 -8 2 -4 -9 -21 -24 -37 -16 -16 -28
-33 -28 -38 0 -4 -4 -5 -10 -2 -5 3 -10 2 -10 -4 0 -5 -18 -29 -40 -52 -22
-24 -43 -51 -46 -61 -3 -10 -9 -16 -13 -14 -4 3 -14 -4 -22 -16 -8 -11 -29
-34 -46 -51 -18 -16 -35 -38 -38 -49 -4 -10 -11 -16 -16 -13 -5 4 -9 1 -9 -5
0 -5 -21 -32 -47 -59 -100 -103 -133 -140 -133 -151 0 -6 -3 -10 -7 -8 -5 2
-20 -9 -35 -24 -15 -15 -24 -28 -20 -28 4 0 -6 -9 -23 -20 -16 -11 -26 -20
-22 -20 4 0 -5 -13 -20 -28 -15 -16 -31 -27 -35 -25 -5 2 -8 -1 -8 -7 0 -15
-55 -70 -70 -70 -7 0 -10 -7 -6 -15 3 -8 1 -15 -4 -15 -13 0 -80 -71 -80 -84
0 -5 -3 -6 -6 -3 -7 7 -44 -30 -44 -45 0 -4 -6 -7 -13 -6 -6 2 -11 -3 -9 -10
1 -6 -2 -12 -7 -12 -15 0 -61 -46 -54 -53 3 -4 1 -7 -6 -7 -17 0 -42 -26 -33
-35 4 -5 -1 -5 -12 -1 -14 5 -17 2 -12 -9 3 -8 1 -15 -5 -15 -5 0 -29 -19 -52
-42 -22 -24 -45 -42 -49 -40 -4 1 -8 -4 -8 -12 0 -8 -9 -18 -20 -21 -11 -4
-19 -9 -17 -13 4 -7 -28 -42 -38 -42 -5 -1 -93 -81 -148 -135 -22 -22 -37 -33
-32 -25 5 8 -19 -13 -53 -46 -34 -34 -63 -60 -65 -58 -2 2 -25 -17 -51 -41
-26 -25 -49 -45 -51 -45 -6 0 -52 -39 -76 -64 -11 -11 -19 -17 -19 -13 0 6
-39 -25 -76 -61 -7 -6 -15 -12 -19 -12 -4 0 -12 -6 -19 -13 -8 -6 -24 -19 -36
-27 -12 -8 -33 -23 -45 -32 -13 -10 -28 -18 -35 -18 -6 0 -9 -4 -6 -9 3 -4
-12 -16 -34 -26 -22 -10 -40 -21 -40 -25 0 -8 -39 -23 -53 -21 -4 1 -6 -5 -5
-11 2 -7 -3 -12 -9 -10 -7 1 -13 -2 -13 -7 0 -11 -56 -41 -77 -41 -7 0 -13 -4
-13 -9 0 -5 -16 -15 -35 -21 -19 -6 -33 -15 -30 -20 3 -4 -4 -6 -15 -3 -11 3
-20 1 -20 -5 0 -6 -9 -9 -20 -7 -11 2 -20 0 -20 -4 0 -5 -15 -12 -32 -16 -38
-8 -167 -12 -165 -5 1 3 -1 5 -5 5 -3 0 -18 11 -32 24 -42 40 -100 27 -91 -21
2 -10 -1 -18 -6 -18 -6 0 -6 -7 1 -19 7 -14 7 -22 0 -26 -8 -5 -8 -11 0 -20 5
-7 11 -31 13 -54 1 -22 8 -43 14 -46 7 -2 10 -11 7 -20 -3 -8 -1 -15 5 -15 6
0 11 -7 11 -15 0 -8 5 -15 10 -15 6 0 9 -3 9 -8 -3 -20 3 -31 22 -37 17 -6 19
-9 8 -16 -11 -7 -10 -9 4 -9 11 0 32 -9 47 -20 16 -11 40 -21 54 -22 14 -1 26
-5 26 -9 0 -3 26 -5 58 -3 31 1 57 3 57 4 0 1 11 4 25 6 40 6 54 10 70 17 45
20 99 35 106 29 4 -4 4 -1 0 5 -6 12 5 18 27 14 4 0 7 4 7 10 0 5 5 7 10 4 6
-3 10 -1 10 5 0 6 4 8 10 5 5 -3 10 -1 10 4 0 6 3 10 7 10 20 -3 34 2 28 11
-3 6 3 10 14 10 11 0 27 7 35 16 9 8 21 12 27 8 7 -4 9 -3 6 3 -8 13 50 46 65
37 7 -4 8 -3 4 4 -4 6 6 18 24 27 16 8 30 20 30 26 0 6 5 7 10 4 6 -3 10 -1
10 5 0 6 3 9 8 7 10 -7 32 19 24 29 -4 4 -2 4 5 0 6 -3 22 4 34 16 12 13 19
16 15 8 -4 -8 0 -6 8 4 9 11 16 16 16 11 0 -4 12 5 27 21 15 16 31 28 35 26 4
-1 8 2 8 8 0 5 5 10 10 10 6 0 24 14 40 30 17 17 30 27 30 23 1 -4 10 3 20 16
11 13 20 20 20 16 0 -3 14 7 31 24 17 17 35 28 41 25 7 -4 8 -2 4 4 -4 7 0 12
10 12 10 0 15 3 11 6 -6 6 45 54 57 54 4 0 17 11 30 25 13 13 27 21 31 17 5
-4 5 -2 1 5 -4 7 2 17 15 23 12 7 39 28 61 48 43 41 68 63 183 167 43 39 102
93 131 122 29 28 55 49 58 46 3 -4 6 0 6 8 0 8 13 23 29 34 16 10 27 23 25 27
-3 4 -2 8 3 8 14 0 73 57 66 64 -3 3 -2 6 4 6 14 0 123 105 123 119 0 6 3 10
8 10 18 -3 33 2 28 9 -3 5 10 23 29 40 19 16 35 36 35 43 0 7 3 9 7 6 3 -4 13
2 20 13 8 11 19 17 25 14 6 -4 8 -2 4 4 -3 6 3 17 14 25 11 7 17 16 14 19 -3
4 4 9 15 13 12 3 21 10 21 14 0 13 37 51 49 51 7 0 10 4 6 9 -3 6 4 15 15 21
11 6 17 16 14 22 -4 7 -3 8 4 4 6 -3 16 3 22 14 6 11 16 17 22 14 6 -4 8 -3 5
3 -4 6 6 21 21 35 15 13 38 38 52 55 13 17 28 29 32 27 4 -3 8 0 8 7 0 6 19
30 43 53 23 22 42 43 42 46 0 3 3 4 8 2 4 -1 7 2 7 7 0 6 20 31 45 58 25 26
45 51 45 56 0 4 5 5 10 2 6 -3 10 0 10 7 0 17 36 49 45 40 4 -4 5 -2 3 4 -4
15 62 95 73 88 5 -3 6 3 2 12 -4 12 -3 15 5 10 7 -4 12 -3 12 2 0 5 12 21 26
36 15 14 24 26 21 26 -3 0 14 20 40 45 25 25 43 45 40 45 -3 0 7 13 21 28 50
52 87 97 85 104 -2 4 6 10 17 13 11 4 20 12 20 18 0 7 9 18 20 25 11 7 20 17
20 24 0 6 15 25 33 42 19 17 39 41 46 54 7 12 17 20 23 16 6 -4 9 -1 6 6 -4
14 36 60 53 60 6 0 7 5 4 10 -3 6 -1 10 5 10 7 0 9 7 6 16 -3 8 -2 12 4 9 6
-3 10 -1 10 5 0 6 5 8 10 5 6 -3 10 0 10 7 0 8 16 31 35 51 19 20 33 37 30 37
-2 0 6 10 18 23 40 41 77 87 72 87 -3 0 0 6 7 14 7 8 17 11 22 8 5 -3 6 0 2 6
-3 6 2 15 11 21 10 6 14 11 10 11 -4 0 -2 6 5 14 7 8 17 11 22 8 5 -3 6 0 2 6
-3 6 3 17 15 26 12 8 18 19 14 25 -3 6 1 11 11 11 10 0 15 3 11 6 -3 3 11 23
31 43 39 39 42 44 42 62 0 5 5 7 10 4 6 -3 10 -2 10 3 0 5 8 18 18 30 10 11
27 33 38 47 10 15 36 45 56 68 20 22 35 44 32 49 -3 4 2 8 11 8 9 0 13 5 10
10 -3 6 1 10 9 10 9 0 15 3 13 8 -2 8 4 15 61 77 32 35 43 41 77 40 22 0 46
-4 53 -8 6 -5 12 -4 12 2 0 5 9 9 20 8 11 -1 20 -5 20 -10 0 -5 7 -4 15 3 12
10 15 10 15 -1 0 -9 3 -10 8 -3 8 12 63 11 83 -1 8 -6 10 -4 4 4 -6 10 -3 11
14 2 11 -7 21 -18 21 -26 0 -8 5 -15 10 -15 6 0 10 -7 10 -15 0 -8 5 -15 11
-15 5 0 7 -4 4 -10 -3 -5 -1 -10 6 -10 7 0 10 -3 6 -6 -5 -5 10 -27 42 -61 7
-7 11 -16 8 -19 -3 -3 3 -14 14 -25 11 -11 17 -25 13 -31 -4 -7 -3 -8 4 -4 7
4 16 -2 22 -16 12 -28 30 -57 48 -76 6 -7 12 -20 12 -28 0 -8 7 -14 15 -14 8
0 14 -3 13 -7 -2 -14 15 -48 34 -65 11 -9 19 -19 19 -22 -1 -11 34 -66 42 -66
4 0 7 -7 7 -15 0 -8 5 -15 11 -15 5 0 8 -4 5 -8 -3 -5 6 -21 20 -37 13 -15 24
-33 24 -38 0 -6 3 -8 6 -4 4 3 13 0 20 -8 8 -7 20 -12 27 -11 18 2 52 36 37
36 -7 0 -9 8 -5 20 4 12 2 20 -5 20 -6 0 -10 6 -8 12 3 7 -4 21 -13 32 -10 10
-16 23 -13 28 3 4 0 8 -6 8 -6 0 -8 4 -5 10 3 6 1 10 -5 10 -6 0 -8 5 -5 10 3
6 1 10 -5 10 -6 0 -8 5 -5 10 3 6 1 10 -4 10 -6 0 -11 7 -11 15 0 8 -5 15 -11
15 -5 0 -8 4 -4 9 3 5 1 12 -5 16 -6 4 -8 11 -5 16 4 5 1 9 -4 9 -6 0 -11 6
-11 14 0 7 -6 19 -14 26 -8 6 -12 19 -9 27 5 12 3 14 -7 8 -10 -6 -12 -4 -7 8
3 10 3 17 -1 17 -10 0 -42 58 -42 76 0 8 -5 14 -12 14 -6 0 -9 3 -5 6 3 3 -5
24 -19 46 -14 22 -20 37 -12 33 7 -3 2 3 -11 14 -13 12 -20 21 -16 21 4 0 2 7
-5 15 -7 8 -9 15 -4 15 5 1 0 9 -12 18 -20 17 -24 46 -8 60 4 4 4 -2 0 -12 -6
-19 -6 -19 12 -3 10 9 24 17 30 17 7 0 20 4 30 10 23 14 76 34 83 32 4 -1 18
9 32 21 13 12 30 23 37 25 8 2 19 11 27 20 7 9 13 14 13 10 0 -10 70 61 70 71
0 5 7 11 15 15 8 3 15 12 15 21 0 8 5 15 11 15 5 0 7 5 4 10 -3 6 -2 10 3 10
10 0 37 56 31 64 -2 2 3 12 12 22 9 11 17 26 17 34 2 32 10 71 15 77 4 3 2 14
-4 24 -5 11 -6 19 -1 19 12 0 10 84 -2 92 -8 6 -8 8 0 8 13 0 12 78 -1 99 -5
9 -4 12 2 8 11 -7 12 61 1 78 -4 6 -3 17 2 25 5 9 4 20 -3 29 -9 12 -9 13 1 7
6 -4 12 -2 12 3 0 15 47 14 53 -1 4 -10 6 -9 6 1 1 10 4 11 15 2 7 -6 30 -12
50 -13 20 -1 36 -4 36 -7 0 -4 14 -8 32 -9 17 -2 38 -8 47 -15 12 -10 13 -9 6
3 -7 12 -6 13 6 4 13 -11 52 -20 106 -27 12 -2 25 -6 28 -9 4 -4 13 -4 21 -1
8 3 14 -1 14 -8 0 -11 3 -11 10 1 8 12 10 12 10 1 0 -8 3 -11 7 -8 3 4 12 2
20 -4 7 -6 13 -8 13 -3 0 5 12 10 26 11 33 1 44 18 35 51 -7 26 -38 40 -151
73 -25 7 -50 16 -56 21 -6 4 -14 5 -17 1 -4 -3 -15 0 -24 9 -10 8 -31 15 -47
16 -16 1 -34 6 -41 12 -6 5 -15 7 -18 3 -4 -3 -7 -2 -7 4 0 6 -9 9 -20 6 -11
-3 -20 -1 -20 4 0 5 -6 10 -12 11 -34 2 -106 27 -127 44 -13 10 -19 18 -14 18
5 0 10 7 10 15 0 8 -5 15 -10 15 -5 0 -4 7 3 15 9 11 9 15 1 15 -7 0 -9 5 -4
13 11 18 12 37 2 37 -6 0 -5 8 1 20 8 15 8 20 -1 20 -8 0 -7 5 2 17 12 15 12
16 -1 8 -8 -5 0 8 18 30 17 22 32 45 32 52 0 7 7 13 16 13 8 0 13 4 10 9 -3 5
1 14 9 21 8 7 12 16 9 21 -3 5 2 9 11 9 9 0 13 5 10 10 -3 6 1 13 9 16 9 3 13
10 10 15 -3 5 2 12 10 15 9 3 13 10 10 15 -3 5 0 9 7 9 7 0 10 3 7 6 -4 3 1
14 10 24 32 35 42 49 42 59 0 5 9 16 20 24 11 8 18 16 15 18 -2 3 9 20 25 39
17 19 30 40 30 46 0 7 6 14 14 17 8 3 22 21 31 40 9 19 25 44 35 55 11 12 20
26 20 32 0 5 5 10 11 10 5 0 8 4 5 9 -3 5 1 12 10 15 9 4 14 9 11 12 -3 3 3
14 14 25 10 10 19 26 19 35 0 8 4 12 10 9 5 -3 12 5 16 19 3 14 12 30 20 37 8
6 11 16 7 22 -3 5 -2 8 3 5 5 -3 15 0 22 8 7 8 10 14 6 14 -3 0 5 15 18 33 14
17 28 42 32 55 4 12 11 20 16 17 7 -5 24 32 21 48 -1 5 3 6 8 3 5 -4 12 3 16
14 4 11 11 18 16 15 5 -3 6 0 4 7 -3 8 4 24 15 36 11 12 19 22 16 22 -3 0 6
12 19 26 14 15 25 33 25 40 0 7 7 17 16 22 9 5 15 12 15 15 -1 4 13 22 31 40
17 17 28 26 24 20 -12 -21 8 -15 24 6 7 11 17 18 22 15 4 -3 8 0 8 5 0 6 6 11
13 11 7 0 23 9 35 21 12 11 26 17 31 14 5 -3 16 4 24 15 7 11 16 18 19 15 3
-3 11 1 18 10 7 8 19 15 26 15 8 0 14 5 14 11 0 5 5 7 10 4 6 -3 10 -2 10 3 0
10 37 25 53 23 5 -1 6 3 2 8 -3 6 6 13 20 17 14 3 25 10 25 15 0 5 7 9 15 9 8
0 15 5 15 10 0 6 7 10 15 10 8 0 24 10 36 23 12 12 18 15 13 7 -4 -8 7 -3 25
13 18 15 39 27 47 27 8 0 14 3 14 8 0 4 17 16 38 27 20 11 41 26 45 33 5 7 12
10 18 7 5 -4 9 -1 9 6 0 7 3 9 7 6 3 -4 12 1 20 11 10 11 12 12 8 2 -4 -10 -2
-9 8 3 8 9 19 17 26 17 6 0 11 4 11 10 0 5 3 9 8 8 14 -3 42 14 36 23 -3 5 -2
8 3 7 15 -5 73 27 73 40 0 7 4 11 9 7 5 -3 15 1 23 8 14 14 17 16 48 24 11 3
20 9 20 13 0 5 9 12 20 15 11 4 18 11 15 16 -3 5 0 6 7 4 8 -3 24 4 36 15 12
11 22 18 22 14 0 -4 8 2 18 13 9 11 23 18 30 16 6 -3 12 2 12 11 0 8 6 13 13
10 7 -2 22 5 34 16 12 11 25 20 28 20 6 0 102 60 134 84 12 9 13 8 7 -4 -4 -8
1 -5 10 8 9 12 26 22 37 22 11 0 17 3 14 7 -7 7 20 25 66 44 15 6 27 16 27 22
0 6 3 8 6 4 3 -3 16 3 27 14 12 11 28 17 36 14 9 -3 12 -3 8 1 -8 9 64 54 75
48 5 -3 8 0 8 6 0 6 8 14 18 17 28 11 49 44 44 70 -2 12 -9 24 -16 24 -47 6
-56 5 -56 -2 0 -5 -7 -6 -15 -3 -8 4 -15 1 -15 -5 0 -6 -5 -11 -12 -11 -6 0
-20 -8 -31 -17 -15 -13 -18 -14 -12 -3 4 8 -4 4 -18 -9 -15 -14 -27 -21 -27
-17 0 4 -12 -2 -26 -13 -15 -12 -33 -21 -41 -21 -7 0 -16 -7 -19 -15 -4 -8
-10 -13 -14 -10 -5 3 -11 1 -15 -5 -4 -6 -11 -8 -16 -5 -5 4 -9 2 -9 -3 0 -5
-20 -17 -44 -27 -25 -10 -43 -22 -40 -27 3 -4 -4 -8 -15 -8 -11 0 -23 -5 -26
-10 -4 -6 -10 -8 -15 -5 -4 3 -11 -2 -14 -11 -3 -8 -10 -12 -16 -9 -5 3 -10 2
-10 -3 0 -9 -37 -25 -52 -23 -5 1 -8 -3 -8 -7 0 -5 -35 -26 -77 -48 -43 -21
-80 -41 -83 -44 -3 -3 -18 -12 -35 -20 -16 -8 -33 -19 -37 -25 -4 -5 -8 -6 -8
-2 0 5 -12 0 -27 -11 -16 -11 -38 -23 -50 -26 -13 -4 -23 -12 -23 -18 0 -6 -3
-8 -7 -5 -3 4 -15 0 -25 -10 -10 -9 -18 -13 -18 -9 0 4 -13 -2 -29 -13 -16
-12 -33 -21 -39 -21 -5 0 -15 -7 -22 -15 -7 -8 -16 -13 -20 -10 -5 3 -12 0
-16 -6 -3 -6 -22 -17 -40 -25 -19 -8 -34 -19 -34 -24 0 -5 -7 -7 -15 -4 -8 4
-15 1 -15 -5 0 -6 -9 -11 -20 -11 -11 0 -20 -4 -20 -10 0 -5 -11 -12 -25 -16
-14 -3 -22 -11 -18 -17 3 -6 1 -7 -6 -3 -6 4 -24 -2 -40 -13 -15 -11 -31 -18
-35 -14 -3 3 -6 0 -6 -7 0 -7 -3 -11 -6 -7 -4 3 -13 -1 -21 -9 -8 -8 -19 -12
-24 -8 -5 3 -12 -2 -15 -11 -5 -12 -9 -13 -21 -4 -11 10 -13 10 -11 -1 2 -7
-3 -15 -10 -17 -20 -8 10 70 40 100 10 10 15 24 11 34 -4 10 -2 14 4 10 10 -6
38 40 35 56 -1 4 3 7 8 7 6 0 10 7 10 15 0 8 5 15 10 15 6 0 10 7 10 15 0 9 7
18 16 22 8 3 13 12 10 19 -3 8 0 14 6 14 6 0 9 3 5 6 -3 3 3 15 14 27 10 11
19 27 19 34 0 7 5 13 10 13 6 0 10 7 10 15 0 8 4 15 9 15 5 0 11 8 15 18 3 9
15 32 26 50 11 17 16 32 12 32 -4 0 1 5 11 11 9 5 17 17 17 24 0 8 5 15 11 15
5 0 7 5 4 10 -3 6 -1 10 5 10 6 0 8 5 5 10 -3 6 -1 10 4 10 6 0 11 7 11 15 0
8 5 15 10 15 6 0 10 7 10 15 0 8 8 23 18 33 9 10 18 25 20 32 2 8 11 20 20 28
10 8 11 10 2 6 -8 -5 -5 4 8 20 12 16 19 32 16 37 -3 5 0 9 6 9 6 0 16 13 21
30 6 17 16 27 22 23 6 -4 8 0 4 10 -3 8 1 21 9 28 14 11 49 83 42 85 -2 0 3 8
11 17 7 9 18 14 24 10 6 -3 7 -1 3 6 -4 6 -1 23 8 36 9 13 16 29 16 36 0 6 9
22 20 36 11 14 17 29 14 34 -3 5 -1 9 5 9 6 0 20 22 32 50 12 28 26 47 32 43
5 -3 7 -1 4 5 -7 10 20 71 37 83 5 4 5 13 1 20 -5 8 -5 11 0 7 4 -4 26 30 48
75 22 45 45 85 51 89 6 4 7 8 2 8 -4 0 -1 11 8 25 9 14 13 25 9 25 -5 0 -3 4
3 8 12 8 59 104 56 115 -1 4 3 7 9 7 6 0 8 7 5 16 -3 8 -2 12 4 9 5 -3 14 13
21 35 7 22 16 40 21 40 5 0 7 4 3 9 -3 5 3 17 12 27 10 10 16 18 14 18 -2 1
-1 11 3 24 4 12 12 19 18 16 7 -4 8 -2 4 5 -4 6 0 23 9 38 12 17 13 23 4 18
-8 -5 -6 1 4 12 10 11 19 30 20 42 1 11 5 21 10 21 5 0 7 6 4 14 -3 8 1 17 9
20 8 3 13 9 12 13 0 4 5 22 12 38 7 17 13 33 12 38 -1 4 3 7 10 7 6 0 8 3 5 6
-3 4 -1 16 5 28 7 11 13 23 13 26 4 25 28 79 34 76 4 -3 7 5 8 17 1 12 15 62
32 110 17 48 29 92 26 97 -3 5 3 13 12 19 10 6 14 11 9 11 -5 0 -2 8 5 17 12
14 12 15 0 9 -9 -6 -8 -1 3 16 9 14 13 28 10 31 -4 4 -1 13 6 22 7 8 10 21 7
29 -3 8 -1 16 4 18 6 2 11 18 11 36 1 17 6 32 11 32 6 0 8 3 5 6 -4 3 -2 19 2
35 6 20 5 29 -3 29 -9 0 -9 2 0 8 6 4 14 26 16 49 3 23 8 47 12 52 3 6 0 11
-7 11 -8 0 -9 3 -3 8 13 9 14 162 2 162 -5 0 -5 6 2 13 8 10 7 17 -1 25 -7 7
-9 12 -5 12 4 0 3 9 -3 20 -8 15 -8 20 2 20 7 0 6 5 -4 13 -9 6 -18 21 -20 32
-2 11 -9 26 -16 33 -7 8 -9 18 -6 24 4 6 2 8 -4 4 -6 -3 -13 3 -17 14 -4 11
-11 18 -16 15 -5 -4 -9 -2 -9 3 0 5 -12 15 -27 23 -16 8 -30 17 -33 21 -3 4
-20 8 -38 10 -18 1 -32 5 -32 8 0 5 -59 8 -64 3z m-4222 -4025 c-5 -9 -2 -9 9
1 14 11 17 11 18 0 0 -11 2 -11 6 -1 4 10 8 10 19 1 11 -9 14 -9 14 0 0 7 10
2 23 -9 12 -12 22 -24 22 -28 0 -18 29 -72 38 -72 6 0 7 -3 4 -7 -4 -3 5 -26
19 -50 14 -24 22 -48 18 -55 -4 -7 -3 -8 4 -4 7 4 12 1 12 -8 0 -9 5 -16 10
-16 6 0 10 -6 10 -12 0 -16 82 -182 92 -186 5 -2 8 -9 8 -16 0 -18 24 -66 33
-66 4 0 7 -9 7 -19 0 -11 3 -21 8 -23 4 -1 17 -22 29 -46 12 -24 17 -40 10
-35 -7 4 -6 0 2 -11 12 -15 12 -19 -4 -34 -10 -9 -15 -11 -11 -4 5 8 -2 12
-24 12 -17 0 -29 4 -26 8 3 5 -5 8 -17 7 -22 -2 -136 18 -144 25 -2 2 -6 3
-10 4 -5 1 -13 5 -20 9 -6 4 -15 2 -19 -4 -4 -7 -9 -8 -13 -1 -6 10 -63 24
-127 31 -12 1 -29 48 -25 66 7 29 6 163 -1 178 -5 10 -5 17 1 17 10 0 7 72 -3
89 -4 5 -3 12 2 15 4 2 6 42 5 88 -4 104 -4 110 0 128 3 18 16 40 23 40 3 0 2
-6 -2 -12z m440 0 c10 9 46 9 46 0 0 -5 5 -6 12 -2 18 12 58 11 58 -1 0 -6 3
-7 8 0 8 12 32 13 50 2 6 -5 12 -5 12 0 0 4 11 8 25 8 14 0 25 -4 25 -10 0 -5
5 -3 10 5 9 13 11 13 20 0 6 -10 10 -11 10 -3 0 9 7 10 23 5 19 -7 42 -8 50
-2 10 8 37 6 37 -3 0 -8 3 -8 8 -2 9 13 35 18 27 5 -3 -5 -2 -10 4 -10 5 0 9
-9 8 -20 -1 -11 -5 -20 -9 -20 -4 0 -7 -3 -7 -7 3 -18 -14 -73 -23 -73 -5 0
-7 -4 -4 -9 3 -5 -3 -34 -13 -64 -11 -30 -17 -58 -14 -61 4 -3 1 -6 -6 -6 -8
0 -11 -8 -9 -18 3 -10 -2 -24 -9 -31 -11 -10 -12 -15 -3 -21 8 -5 7 -9 -4 -13
-9 -4 -13 -13 -10 -21 3 -8 1 -17 -5 -21 -6 -3 -11 -16 -11 -29 0 -12 -5 -27
-10 -32 -6 -6 -13 -24 -16 -40 -6 -31 -26 -51 -33 -31 -2 6 -9 17 -15 23 -29
31 -47 56 -43 61 3 2 -6 16 -19 30 -13 14 -21 29 -18 34 3 5 1 9 -5 9 -5 0
-20 18 -32 40 -13 22 -27 40 -33 40 -5 0 -7 3 -3 6 3 4 -1 13 -9 21 -8 8 -12
18 -10 22 3 4 -4 14 -15 21 -10 8 -19 20 -19 28 0 7 -5 10 -12 6 -6 -4 -8 -3
-4 4 3 6 -1 17 -9 25 -8 9 -15 20 -15 25 0 6 -4 12 -9 14 -5 2 -11 10 -13 18
-2 8 -11 22 -20 31 -10 9 -18 21 -18 27 0 6 -6 13 -12 16 -10 3 -8 9 5 19 13
11 27 13 47 7 16 -4 31 -5 34 -2z m687 2 c14 8 19 7 19 -1 0 -9 3 -9 14 0 11
9 16 9 21 0 6 -8 10 -7 16 2 6 10 9 11 9 2 0 -7 5 -13 11 -13 5 0 7 6 3 13 -6
9 -4 9 7 1 8 -6 24 -10 37 -9 17 1 21 -2 17 -14 -5 -12 -3 -13 5 -5 14 14 62
6 53 -9 -3 -6 -1 -7 5 -3 12 7 102 -33 102 -47 0 -4 5 -5 10 -2 6 3 10 0 10
-7 0 -7 9 -19 20 -26 11 -7 20 -19 20 -27 0 -8 5 -15 11 -15 6 0 9 -7 5 -15
-3 -8 -1 -15 5 -15 6 0 8 -4 4 -9 -3 -6 1 -15 8 -22 16 -15 10 -64 -9 -80 -8
-6 -14 -8 -14 -3 0 5 -4 3 -9 -4 -4 -7 -17 -14 -29 -15 -11 0 -20 -6 -19 -11
1 -6 -2 -10 -8 -11 -5 0 -20 -6 -32 -13 -13 -7 -23 -10 -23 -6 0 4 -8 -2 -17
-12 -10 -10 -25 -20 -33 -22 -8 -2 -18 -9 -22 -15 -4 -7 -8 -8 -8 -3 0 5 -9 1
-20 -9 -11 -10 -20 -14 -20 -9 0 5 -7 0 -15 -10 -8 -11 -15 -16 -15 -12 0 4
-18 -3 -40 -15 -22 -13 -40 -26 -40 -31 0 -4 -4 -7 -8 -5 -10 3 -106 -45 -110
-55 -2 -5 -12 -8 -23 -8 -10 0 -19 -4 -19 -10 0 -5 -13 -10 -30 -10 -32 0 -37
9 -18 28 7 7 9 12 5 12 -4 0 -1 16 8 35 8 20 10 33 4 29 -7 -4 -7 1 0 15 7 12
9 26 6 31 -3 6 -1 10 5 10 7 0 10 6 7 14 -3 8 -3 17 1 21 4 4 8 11 8 16 1 5 2
10 4 12 2 2 8 39 14 82 2 17 5 31 6 33 4 4 7 21 9 43 0 11 5 18 10 15 5 -4 7
3 4 15 -4 12 0 25 8 30 11 7 11 9 1 9 -7 0 -10 4 -7 10 7 12 14 45 17 83 1 15
6 27 11 27 4 0 6 4 3 9 -4 5 0 11 6 14 7 2 14 0 16 -4 2 -5 12 -4 23 1z m420
-652 c1 -13 2 -84 2 -158 1 -74 5 -140 9 -146 4 -6 -2 -26 -14 -45 -12 -19
-23 -29 -25 -22 -2 7 -11 9 -19 6 -8 -3 -14 1 -14 8 0 7 -3 10 -6 7 -3 -3 -29
3 -57 14 -29 11 -56 20 -62 21 -5 2 -16 6 -22 10 -8 5 -13 3 -13 -5 0 -9 -3
-9 -10 2 -5 8 -13 15 -17 16 -22 2 -69 18 -80 26 -7 5 -17 7 -23 3 -5 -3 -10
-2 -10 4 0 5 -9 8 -20 6 -11 -2 -18 0 -15 6 4 5 -1 9 -9 9 -10 0 -13 6 -10 15
4 8 10 12 15 9 5 -3 9 0 9 7 0 7 3 9 7 6 3 -4 12 1 20 11 10 11 12 12 8 2 -5
-12 -4 -12 7 1 7 9 18 18 23 20 6 2 9 7 8 12 -2 4 0 6 5 5 14 -3 62 22 62 32
0 6 4 9 8 6 5 -3 18 3 29 14 12 10 23 16 27 13 3 -3 8 2 12 11 3 9 10 13 15
10 5 -3 9 -1 9 5 0 6 6 8 14 5 7 -3 16 2 20 11 3 9 10 13 16 10 6 -3 13 1 16
9 3 9 10 14 14 11 4 -3 11 2 14 11 3 8 10 12 16 9 5 -3 10 -1 10 4 0 22 30 10
31 -11z m-1511 -190 c0 -6 3 -9 6 -5 3 3 23 -1 44 -8 21 -7 41 -11 44 -8 3 4
6 0 6 -7 0 -7 3 -11 6 -8 3 4 21 0 40 -8 18 -8 37 -13 41 -12 5 1 18 -3 31
-10 12 -7 22 -9 22 -5 0 4 4 2 9 -6 5 -7 20 -13 35 -13 14 0 23 -4 20 -9 -3
-5 1 -9 8 -9 7 0 -5 -12 -27 -27 -22 -15 -46 -26 -54 -25 -7 2 -10 -1 -7 -6 3
-5 -8 -15 -25 -22 -17 -7 -37 -19 -44 -26 -7 -7 -19 -15 -26 -16 -13 -3 -28
-13 -53 -35 -8 -7 -16 -9 -20 -6 -3 4 -6 1 -6 -5 0 -7 -5 -12 -11 -12 -6 0
-23 -8 -37 -18 -51 -35 -59 -34 -58 9 1 21 -2 39 -6 39 -4 0 -4 10 1 23 8 22
7 54 -3 64 -3 3 -1 14 5 24 7 14 6 19 -3 19 -8 0 -9 3 -3 8 13 9 14 112 0 112
-5 0 -3 5 5 10 21 14 60 12 60 -2z m1065 -298 c0 -3 38 -10 60 -12 11 -1 25
-6 32 -11 7 -5 17 -6 23 -2 5 3 10 0 10 -7 0 -9 3 -9 10 2 7 11 10 11 10 2 0
-7 4 -11 8 -8 5 3 29 -1 54 -9 26 -7 49 -11 52 -8 3 4 6 1 6 -7 0 -9 3 -10 13
-2 10 9 13 5 12 -14 0 -14 -8 -31 -17 -38 -10 -7 -15 -16 -11 -19 3 -4 1 -7
-5 -7 -7 0 -12 -6 -12 -14 0 -8 -10 -22 -22 -30 -12 -9 -19 -16 -14 -16 5 0
-1 -8 -12 -19 -12 -10 -19 -20 -16 -23 3 -3 -6 -14 -19 -24 -13 -11 -21 -26
-19 -34 3 -8 1 -12 -3 -8 -4 4 -13 1 -19 -7 -13 -18 -33 -7 -38 20 -1 11 -11
29 -21 40 -10 10 -15 25 -13 31 3 7 -2 15 -10 18 -8 3 -14 14 -14 24 0 10 -9
28 -20 40 -12 12 -18 22 -15 22 3 0 -4 18 -15 40 -11 23 -18 45 -15 50 3 6 -1
7 -11 3 -14 -5 -15 -3 -6 14 7 12 19 19 34 17 13 -1 23 -3 23 -4z m-605 -101
c5 9 11 7 21 -5 11 -14 11 -16 0 -10 -10 7 -12 3 -6 -13 3 -11 2 -21 -3 -21
-5 0 -8 -11 -7 -25 2 -14 0 -25 -4 -25 -6 0 -12 -34 -15 -92 0 -14 -4 -24 -8
-21 -7 4 -12 -28 -11 -64 1 -7 -3 -13 -7 -13 -4 0 -7 -13 -6 -30 1 -16 -1 -31
-5 -32 -7 -3 -19 -64 -21 -110 -1 -16 -5 -28 -10 -28 -4 0 -7 -3 -6 -7 0 -5
-3 -33 -7 -63 -5 -30 -8 -58 -7 -62 3 -10 -1 -10 -220 -12 -161 -1 -188 1
-190 14 -3 31 -4 35 -11 48 -5 6 -5 17 -1 24 10 16 11 89 2 95 -5 2 -5 10 -1
16 10 16 10 38 1 58 -3 8 -3 21 2 29 6 9 5 17 -2 21 -9 6 -8 12 1 23 8 9 10
16 7 16 -4 0 -2 9 4 20 6 11 15 18 21 15 5 -4 9 -2 9 3 0 6 7 13 16 16 10 4
13 2 8 -7 -8 -13 36 21 48 38 4 6 8 6 8 2 0 -5 13 1 30 13 16 12 34 19 39 16
5 -3 12 1 15 10 4 9 9 14 13 11 3 -4 12 1 20 11 8 9 11 11 8 3 -8 -14 38 12
63 36 8 7 18 11 23 8 5 -4 9 -1 9 5 0 6 4 9 8 6 5 -3 18 4 30 14 12 11 28 20
36 20 7 0 16 7 20 15 3 8 12 12 19 9 8 -3 17 2 21 11 3 9 10 13 16 10 5 -3 10
0 11 7 0 10 2 10 6 -1 4 -10 7 -10 13 -2z m291 -81 c-1 -5 6 -16 15 -25 39
-45 64 -79 64 -90 0 -7 5 -13 12 -13 6 0 9 -3 5 -6 -5 -6 0 -15 31 -49 6 -7
12 -18 12 -24 0 -6 5 -11 10 -11 6 0 10 -7 10 -15 0 -8 5 -15 10 -15 6 0 10
-7 10 -15 0 -8 5 -15 10 -15 6 0 10 -7 10 -15 0 -8 5 -15 10 -15 6 0 10 -7 10
-15 0 -7 8 -19 18 -24 9 -6 13 -11 8 -11 -5 0 -4 -6 2 -13 8 -10 5 -20 -13
-40 -14 -14 -25 -30 -25 -35 0 -6 -7 -13 -16 -16 -9 -4 -14 -9 -11 -12 3 -3
-8 -19 -24 -35 -16 -17 -27 -34 -24 -39 3 -5 -4 -7 -15 -5 -11 2 -20 0 -20 -5
0 -4 -8 -7 -17 -5 -10 2 -18 4 -18 5 0 1 -57 3 -127 3 -94 2 -130 6 -140 16
-11 12 -10 12 2 6 13 -8 13 -7 1 8 -10 13 -10 17 -1 17 7 0 10 7 6 15 -3 8 -1
15 4 15 6 0 10 8 10 18 0 10 6 27 14 37 7 10 11 27 8 37 -2 10 1 18 7 18 6 0
11 14 11 30 0 17 5 30 11 30 6 0 9 7 5 15 -3 8 -2 15 3 15 4 0 8 7 9 15 1 8 3
22 4 30 1 8 5 15 10 15 5 0 6 5 3 10 -3 6 0 10 7 10 9 0 9 3 -2 10 -14 9 -7
15 14 11 5 -1 4 4 -3 12 -8 10 -8 16 -1 19 6 2 13 17 16 33 3 17 12 41 21 54
8 13 11 21 5 17 -6 -4 -8 2 -5 14 3 11 9 17 14 14 5 -3 6 2 2 11 -4 12 -1 16
11 14 9 -2 17 -7 17 -11z m-302 -940 c11 18 12 18 38 4 16 -9 24 -9 29 -1 4 8
9 7 14 -2 7 -10 12 -10 26 2 16 13 16 12 0 -19 -9 -18 -26 -42 -37 -53 -10
-10 -16 -19 -13 -19 4 0 -5 -11 -19 -24 -14 -13 -23 -27 -20 -30 4 -3 1 -6 -6
-6 -7 0 -9 -5 -5 -12 4 -6 3 -8 -4 -4 -5 3 -20 -10 -32 -29 -12 -19 -26 -35
-31 -35 -6 0 -7 -4 -4 -10 3 -5 1 -10 -5 -10 -7 0 -20 -10 -29 -22 l-18 -22 2
25 c1 13 5 32 9 41 4 9 4 22 0 29 -5 8 -3 9 6 4 8 -5 11 -3 8 6 -2 7 1 25 8
38 7 14 11 28 8 33 -3 4 -1 8 5 8 5 0 8 9 6 20 -2 11 0 20 6 20 5 0 8 3 7 8
-1 4 3 23 10 42 10 28 15 32 22 20 8 -12 12 -13 19 -2z"/>
</g>
</svg>
